<?xml version="1.0" encoding="utf-8"?>
<!-- Generator: Adobe Illustrator 24.1.0, SVG Export Plug-In . SVG Version: 6.00 Build 0)  -->
<svg version="1.2" baseProfile="tiny" id="Layer_1" xmlns="http://www.w3.org/2000/svg" xmlns:xlink="http://www.w3.org/1999/xlink"
	 x="0px" y="0px" viewBox="0 0 233.9 67" xml:space="preserve">
<g>
	<path fill="#FFFFFF" d="M56.8,38.5c3.3-2.2,9.9-6.3,13.8-5.7c3,1.9,3.1-0.8,5.1,1c0.5,1.9-12.4,17.4-4.9,12.7c4.7-4,9-8.9,14-12.6
		c2.2-0.1,2.7,0.2,1.8,2.3c-0.9,2.3-8.5,11.7-2.1,10.2c8.2-2.6,12.8-11.1,21.1-13.2c2,0.1,3.1,3.2,0,2.7c-0.5-0.1-1.1,0.3-1.5,0.6
		c-2.9,2.1-12.6,12.2-6,10.8c6.4-2.2,12.1-5.6,17-10.3c2.4-2.3,5.2-4.9,8.8-4.7c1.9,0.1,3,1.9,2,3.5c-2.5,4.1-6,7-10.9,7.4
		c-1.6,0.1-1.5,1.2-1.5,2c2.7,5.6,19.9-8,23.5-10.2c2.1-3.7,6.7-2.7,4.3-0.5c-5.3,6.6,7.6-6.2,6.5,1.9c-1.6,3.4-3.4,6.6-4,10.3
		c7.5-3.2,13.7-9,20.6-13.3c1.8-1.1,3.8,0.5,1.7,2c-3.2,2.8-5.8,6.1-7.4,10.1c-0.5,1.6-0.4,2.2,1.4,1.6c4.6-2.3,9.1-4.6,13.6-7
		c2.9-1.8,6.3-3.3,8.5-5.9c1.2-2.1,2.3-4.4,3.6-6.5c1-1.6,0.4-1.7-1.1-1.7c-14.7,0-29.5,0.3-44.1,0.1c-3.7-2.9,4-2.4,5.8-2.4
		c13,0,26-0.1,39.1,0c2.3,0,3.4-0.8,4.5-2.8c1.7-3.1,3.7-5.9,5.6-8.8c0.6-1.3,2-0.8,3.1-0.9c-0.1,0.6,0.1,1.4-0.2,1.9
		c-9.1,14.9-7.8,8.8,6.3,10.9c1.1,0.6,1.6,1.6,0,2.2c-1.6,0.4-3.6,1.4-5.2,0.9c-2.6-2-5.5-0.7-8.2-1c-0.4,0-0.9,0.4-1.1,0.8
		c-1.9,3.7-3.8,7.4-5.7,11.2c-0.9,1.8-1.8,3.7-2.7,5.5c-0.8,1.7-2,4.6-1.2,5.2c1.1,0.8,4.6-0.9,5.7-1.4c2.6-1.1,5.1-2.6,7.5-4
		c3.5-2,6.8-4.2,10.1-6.6c2.9-2.1,5.8-5,9.4-2.5c0.2,0.1,0.6-0.1,0.9-0.2c0.8-1.3,2.3-1.4,3.4-0.7c0.9,0.9,0.2,1.4-0.1,1.9
		c-1.2,1.7-9.1,11.9-2.8,11c5.5-1.8,10.2-5.4,14.4-9.3c1.5-1.8,4.6-2.7,4.9-1.2c-1.9,4.5-15,13-20.1,12.8c-3.1,0-4.6-1.4-4.9-5.2
		c0,0.4-1.4,1.6-1.6,1.9c-1.5,1.7-3.2,3.2-5.3,4.2c-0.4,0.2-0.7,0.3-1.1,0.4c-0.6,0-1.1-0.2-1.5-0.6c-0.6-0.6-1.1-1.3-1.4-2.1
		c-0.2-0.8-0.7-2.6,0.3-3.1c-3.7,2.2-8.6,5.4-15.1,7.2c-1,0.3-2.3,0.3-3.4,0c-7.8-1.5,3.3-14-2.5-10c-6.1,2.8-11.6,7.5-18.2,8.8
		c-4.9,0.4-4.2-4.1-2.5-7.3c-4.1,2.4-7.4,4.9-11.8,6.3c-7.8,1-2.5-8.2-0.5-11.5c-1.1-1.7-10.1,10.3-11.6,11.8
		c-0.8,0.9-1.7,1.1-2.5,0.3c-1.1-2.4,2.4-6.2,3.3-8.5c-3.5,1.9-7,4-10.6,5.7c-4.1,1.7-10.7,4.2-12.5-1.9c-0.1-0.2-0.9-0.2-1.2,0
		c-3.2,1.5-6.4,3.1-9.6,4.5c-2.6,1.3-6.5,0.1-7-3c0-3.7-11.8,9.7-14.1-2.7c-3.1,2.2-6.1,6.9-10.6,6.1c-4.7-1-1.9-5.9-0.4-8.6
		c1.5-2.9,6.7-7.7,0.1-5.8c-6.8,3-12.6,7.2-16.8,13.3c-0.7,1.1-1.4,1.5-2.5,0.8c-1.2-0.8-0.6-1.6-0.1-2.5c0.7-1.7,4.8-6.2,4-7.4
		C42,47.4,32,54.6,21.7,61.4c-3.4,2.2-7.4,3.8-11.3,5C-3.6,70-0.4,50.9,3.7,43.4c3.1-7,7.8-12.8,12.7-18.5
		C25.6,14.5,36.3,4.3,50,0.5c5.1-1.4,9.1,2.7,7.9,7.8c-0.6,2.6-1.8,5-2.8,7.4c-0.4,1.5-2,1.5-3.2,1.1c-0.8-2.4,2.5-6.6,2.8-9.3
		c2-8-8.1-3.4-11.5-1.3C25.6,17.4,5,36.5,3.8,58.5c-0.4,15.8,27.7-7.5,32.9-10.9C39,46.5,62.6,25.6,56.8,38.5z M211.9,36.2
		c-4.8-0.1-9.1,5.2-11.3,9.1c-0.6,1.9-0.2,2.2,1.4,1C205.4,42.9,208.7,39.8,211.9,36.2z M123,35.1c-0.8-1.6-5.5,5.1-7.1,5.5
		C119,39.9,121.7,38.3,123,35.1z"/>
	<path fill="#FFFFFF" d="M145.4,30.7c-1.8-0.1-3-1.4-4.8-0.7c-0.5,0.2-1.8-0.1-2-0.7c-0.2-0.7,0.7-1.5,1.2-1.6
		c2-0.4,4.4,0.2,6.4-0.2c1.1-0.4,2.3-0.7,2.8,0.5C149,29.2,146.9,30.6,145.4,30.7z"/>
	<path fill="#FFFFFF" d="M167.9,31.1c-0.1,0-0.2-0.1-0.3-0.1c-0.6-0.3-1.6-0.8-1.2-1.6c0.5-1.1,1.5-2,2.7-2.2
		c0.6-0.1,1.3-0.1,1.9,0.1c0.8,0.3,0.6,0.9,0.1,1.6c-0.3,0.4-0.7,0.7-1.1,1c-0.6,0.4-1.3,0.8-1.9,1.2
		C168.1,31.1,168,31.1,167.9,31.1C167.9,31.1,167.9,31.1,167.9,31.1z"/>
</g>
</svg>
