<?xml version="1.0" encoding="utf-8"?>
<!-- Generator: Adobe Illustrator 24.1.0, SVG Export Plug-In . SVG Version: 6.00 Build 0)  -->
<svg version="1.2" baseProfile="tiny" id="Layer_1" xmlns="http://www.w3.org/2000/svg" xmlns:xlink="http://www.w3.org/1999/xlink"
	 x="0px" y="0px" viewBox="0 0 46 46" xml:space="preserve">
<rect x="0" fill="#EB5624" width="46" height="46"/>
<polygon fill="#EB5624" points="21.5,10.3 21.4,10.3 21.4,10.3 "/>
<path fill="#EB5624" d="M20.6,23.9C20.6,23.9,20.6,23.9,20.6,23.9C20.6,23.9,20.6,23.9,20.6,23.9C20.6,23.9,20.6,23.9,20.6,23.9z"/>
<path fill="#EB5624" d="M21.7,13.2C21.7,13.2,21.7,13.2,21.7,13.2C21.7,13.2,21.7,13.2,21.7,13.2C21.7,13.2,21.7,13.2,21.7,13.2z"/>
<path fill="#EA5623" d="M21.3,13.5c-0.4,0.6-0.8,1.1-1.2,1.6c-1.8,1.8-3.9,3-6.3,3.8c-0.1,0-0.2,0.1-0.3,0c0-0.3,0.1-0.5,0.3-0.6
	c0.4-0.5,0.6-1.1,0.8-1.7c0.2-0.9,0.4-1.9,0.2-2.8c0-0.2,0-0.3,0-0.4c0.5-1.9,1.7-3.2,3.6-3.9c1-0.4,1.8-0.1,2.5,0.5
	c0.1,0.1,0.2,0.2,0.3,0.3c0.1,0.1,0.2,0.2,0.3,0.2c-0.2-0.2-0.3-0.4-0.5-0.6c-0.7-0.6-1.6-0.9-2.5-0.6c-1.3,0.5-2.3,1.3-3.1,2.5
	c-0.4,0.6-0.7,1.2-0.6,1.9c0,0.6,0.1,1.2,0,1.8c-0.2,1-0.3,2-0.9,2.8c-0.2,0.2-0.3,0.4-0.4,0.7c-0.1,0.2,0,0.3,0.2,0.3
	c0.1,0,0.2-0.1,0.3-0.1c1.1-0.4,2.2-0.8,3.2-1.4c1.4-0.8,2.7-1.8,3.7-3c0.3-0.4,0.6-0.9,1-1.3C21.6,13.2,21.5,13.3,21.3,13.5z"/>
<path fill="#EA5623" d="M22.2,1.7c-0.1-0.2-0.2-0.4-0.4-0.4c0,0,0,0.1,0,0.1C22,1.4,22.1,1.6,22.2,1.7C22.2,1.7,22.2,1.7,22.2,1.7
	C22.2,1.7,22.2,1.7,22.2,1.7z"/>
<path fill="#EA5623" d="M26.1,3.1c0.3,0.7,0.5,1.5,0.6,2.3c0,0.5,0.1,0.5,0.6,0.4c0.3-0.1,0.6-0.1,1-0.1c1.1,0.1,2,0.6,2.8,1.3
	c1,0.8,1.6,1.8,1.7,3.1c0.2,1.4,0.6,2.8,1.6,3.8c0.2,0.2,0.3,0.3,0.3,0.6c-0.1,0-0.1,0.1-0.2,0.1c-0.4,0-0.8-0.1-1.2-0.2
	c-3.2-0.8-6.1-2.2-8-5.1c-0.2-0.2-0.3-0.3-0.6-0.1c-0.3,0.3-0.7,0.5-1,0.9c-0.8,0.9-0.9,1.9-0.2,2.9c0.5,0.7,0.9,1.5,1,2.4
	c0.1,0.4,0.2,0.4,0.5,0.2c0.5-0.3,1-0.4,1.5-0.3c1.2,0.1,2.3,0.6,3.2,1.4c0.8,0.7,1.4,1.5,1.5,2.6c0,0.3,0.1,0.5,0.2,0.8
	c0.4,1.1,0.7,2.2,1.7,2.9c0.2,0.1,0.4,0.3,0.4,0.6c-0.1,0.1-0.2,0.1-0.3,0c-1.5-0.2-3-0.5-4.4-1.1c-1.8-0.7-3.5-1.8-4.8-3.4
	c-0.3-0.4-0.4-0.3-0.6,0.1c-0.4,0.6-0.7,1.2-1,1.9c-0.2,0.6-0.5,1.2-0.3,1.8c0.3,1.1,1,2.1,2.1,2.7c1.5,0.8,2.7,1.9,3.4,3.3
	c1.1,2.1,1.3,4.4,1,6.7c-0.2,2-0.7,4-1.3,6c0-0.2,0.1-0.4,0.1-0.7c0-1.2-0.4-2.3-1-3.4c-0.1-0.1-0.1-0.2-0.2-0.3
	c-0.1-0.2,0.1-0.4,0.3-0.5c0.2-0.1,0.3,0.1,0.3,0.2c0.3,0.4,0.5,0.8,0.7,1.1c0.1,0.1,0.2,0.3,0.3,0.2c0.2-0.1,0.1-0.3,0.1-0.4
	c-0.1-0.9-0.4-1.7-1-2.3c-1.1-1.3-2.5-2.1-4.2-2.3c-0.3,0-0.7-0.1-1.1,0c0.2,0,0.5,0,0.7,0c0.1,0,0.3,0,0.4,0.1
	c2.5,0.2,5.2,2.7,5,4.8c-0.5-0.5-0.7-1.3-1.3-1.8c-0.1,0.1-0.1,0.1-0.2,0.2c-0.4,0.5-0.4,0.5-0.1,1c0.7,1.3,1.2,2.6,0.9,4.1
	c0,0.1,0,0.2,0.1,0.3c0.2-0.1,0.2-0.3,0.3-0.5c0.2-0.8,0.4-1.6,0.6-2.4c0.5-2.1,0.9-4.1,0.7-6.3c-0.1-1.6-0.5-3-1.3-4.4
	c-0.8-1.3-1.8-2.3-3.2-2.9c-0.3-0.1-0.5-0.3-0.6-0.5c-0.3-0.3-0.6-0.7-0.8-1c-0.4-0.5-0.7-1-0.6-1.7c0.2-1.3,0.9-2.3,1.5-3.4
	c0.5,0.6,0.9,1.2,1.5,1.6c1.6,1.3,3.4,2.1,5.3,2.7c1,0.3,1.9,0.4,2.9,0.6c0.1,0,0.2,0,0.3-0.1c0.1-0.1,0-0.2-0.1-0.3
	c-0.2-0.2-0.3-0.5-0.6-0.6c-0.3-0.2-0.5-0.5-0.6-0.8c-0.5-0.9-0.9-1.9-1.1-2.9c-0.1-0.6-0.3-1.2-0.6-1.7c-0.8-1-1.9-1.7-3.1-2.1
	c-0.9-0.3-1.9-0.4-2.7,0.3c0,0,0,0-0.1,0c-0.1-0.9-0.4-1.8-0.9-2.5c-0.3-0.4-0.4-0.8-0.6-1.2c-0.1-0.4-0.1-0.8,0.2-1.2
	c0.4-0.6,1-1.1,1.7-1.6c0.2,0.2,0.3,0.5,0.5,0.7c1,1.5,2.5,2.5,4,3.3c1.5,0.8,3.2,1.3,4.9,1.6c0.1,0,0.3,0.1,0.4,0
	c0.1-0.1,0-0.3-0.1-0.4c-0.1-0.2-0.3-0.4-0.5-0.6c-0.1-0.1-0.3-0.3-0.4-0.5c-0.6-1.1-1-2.2-1-3.4c0-0.4-0.1-0.8-0.3-1.2
	c-0.6-1.2-1.6-2-2.9-2.6c-0.9-0.4-1.8-0.6-2.7-0.2c0,0-0.1,0-0.1,0c0-0.5-0.1-0.9-0.2-1.4C26.5,3.9,26.4,3.5,26.1,3.1
	c0-0.1,0-0.1,0-0.1C26.1,3,26.1,3.1,26.1,3.1z"/>
<path fill="#EA5623" d="M20.6,33.2c0-0.5,0-1.1,0-1.6c0-1.8,0.4-3.4,1.4-4.9c0.2-0.3,0.2-0.6,0-0.9c-0.4-0.5-0.9-1.1-1.2-1.7
	c-0.1-0.1-0.1-0.2-0.2-0.2c0.3,0.8,0.8,1.4,1.3,2c0.3,0.3,0.2,0.5,0,0.8c-0.4,0.6-0.7,1.2-1,1.8c-0.6,1.5-0.5,3.1-0.4,4.7
	C20.6,33.2,20.6,33.2,20.6,33.2C20.6,33.2,20.6,33.2,20.6,33.2z"/>
<path fill="#EA5623" d="M20.2,24.1c-1,1.1-2.3,1.8-3.7,2.4c-2,0.8-4.2,1.1-6.4,1c-0.1,0-0.2,0-0.2-0.1c0-0.2,0.1-0.2,0.2-0.3
	c0.4-0.3,0.8-0.5,1.1-0.9c0.7-0.9,1.3-1.9,1.6-3c0.1-0.5,0.4-0.8,0.7-1.2c0.9-1,2-1.6,3.3-1.7c1.5-0.2,2.2-0.3,3.2,1.5
	c0.1,0.1,0.1,0.3,0.3,0.3c0.1-0.1,0.1-0.2,0.2-0.3c0.2-1,0.6-1.9,1.1-2.8c0.4-0.7,0.8-1.4,1.1-2.1c0.4-0.9,0.2-1.8-0.4-2.5
	c-0.1-0.2-0.3-0.4-0.4-0.6c-0.1-0.2-0.2-0.3-0.3-0.3c0.2,0.5,0.5,0.9,0.7,1.2c0.4,0.6,0.6,1.3,0.3,2c-0.2,0.6-0.5,1.1-0.8,1.7
	c-0.7,1.2-1.4,2.4-1.6,3.8c-0.1-0.2-0.2-0.4-0.3-0.6c-0.4-0.7-0.9-1.2-1.7-1.3c-1.3-0.1-2.5,0.1-3.6,0.8c-1,0.6-1.7,1.4-2.1,2.5
	c-0.4,1.3-1.1,2.6-2.3,3.4c-0.2,0.1-0.3,0.2-0.5,0.4c-0.1,0.1-0.3,0.2-0.2,0.4c0.1,0.2,0.2,0.1,0.4,0.1c1.2,0,2.4,0,3.5-0.2
	c2-0.3,3.9-1,5.6-2.2c0.5-0.4,0.9-0.8,1.4-1.3C20.5,23.9,20.3,24,20.2,24.1z"/>
<path fill="#EA5623" d="M21.7,10.1c0.4-0.8,0.9-1.4,1.6-2c0.3-0.3,0.7-0.5,1-0.9c0.9-1,1-2.7,0.2-3.6c-0.6-0.6-1.2-1.2-1.9-1.7
	c0,0-0.1,0-0.1,0c0,0,0,0,0,0c0.6,0.5,1.2,1.1,1.8,1.6c0.1,0.1,0.1,0.1,0.2,0.2C25.2,5,25,6.7,23.8,7.6c-1,0.8-1.8,1.6-2.4,2.8
	C21.5,10.3,21.6,10.2,21.7,10.1z"/>
<path fill="#EA5623" d="M23.3,41.7c0.2,0.3,0.4,0.5,0.9,0.6c0-0.7,0-1.4,0-2c0-0.9,0.2-1.7,0.6-2.5c0.4-0.8,1-1.5,1.7-2.1
	c-0.4-0.4-0.8-0.7-1.2-1c-0.6-0.4-0.6-0.4-1,0.1c-0.5,0.8-1,1.5-1.3,2.4c-0.1,0.3-0.3,0.7-0.6,0.9c-0.5,0.2-0.4,0.4-0.2,0.7
	C22.4,39.8,22.8,40.8,23.3,41.7z"/>
<path fill="#EA5623" d="M35.7,14.5c0.1,0.4,0.4,0.5,0.7,0.5c0.7,0.1,1.3,0.2,2,0.3c0.3,0,0.7,0.1,1.1,0c-0.3-0.2-0.7-0.2-1-0.3
	c-1.2-0.5-2.2-1.2-3-2.2c-0.8-1-1.2-2.2-1.5-3.4c-0.5-2.1-2.2-3.5-4.5-3.7c-0.1,0-0.2,0-0.3,0.1c0.5,0,0.9,0.2,1.4,0.4
	c1.5,0.6,2.6,1.7,3,3.4c0.1,0.6,0.2,1.1,0.3,1.7c0.2,1,0.5,1.8,1.2,2.5C35.3,13.9,35.6,14.2,35.7,14.5z"/>
<path fill="#EA5623" d="M34.6,23.5c0.1,0.2,0.2,0.2,0.3,0.2c1,0.1,2,0.2,3.1,0.2c0.1,0,0.2,0,0.3-0.1c-0.2-0.2-0.5-0.1-0.7-0.2
	c-1.5-0.4-2.7-1.2-3.6-2.4c-0.8-0.9-1.2-2-1.5-3.1c-0.6-1.9-2.3-3.1-4.1-3.2c-0.1,0-0.3-0.1-0.5,0.1c0.5,0.1,0.9,0.2,1.3,0.4
	c1.4,0.6,2.4,1.5,2.8,2.9c0.2,0.6,0.4,1.3,0.5,2c0.2,0.9,0.6,1.7,1.3,2.3C34.2,22.8,34.5,23.1,34.6,23.5z"/>
<path fill="#EA5623" d="M9.3,20c-0.1,0-0.3,0.1-0.3,0.2c0,0,0.1,0,0.1,0c1.1-0.2,2.2-0.5,3.3-0.9c0.1,0,0.2-0.1,0.2-0.3
	c0-0.3,0.1-0.5,0.3-0.7c0.5-0.8,0.9-1.6,0.9-2.6c0.1-0.8,0-1.7,0.1-2.5c0.1-0.8,0.4-1.6,1-2.2c0.7-0.8,1.5-1.3,2.4-1.7
	c0,0-0.1-0.1-0.1-0.1c-2.1,0.5-3.5,2.1-3.7,4.2c-0.1,1-0.2,2-0.7,2.9C12.1,18.1,11,19.4,9.3,20z"/>
<path fill="#EA5623" d="M11.6,22.8c-1.1,2.3-2.9,3.7-5.5,4.2c-0.3,0.1-0.6-0.1-0.9,0.1c0,0.1,0.1,0.1,0.2,0.1c1,0.2,1.9,0.3,2.9,0.3
	c0.3,0,0.6,0,0.8-0.4c0-0.1,0.2-0.2,0.2-0.3c0.4-0.4,0.9-0.7,1.3-1.1c0.5-0.6,0.7-1.2,1-1.9c0.3-0.8,0.6-1.6,1.2-2.3
	c1-1.2,2.3-1.7,3.8-1.8c0.2,0,0.4,0,0.6-0.2c-0.5,0-0.9,0-1.3,0c-1,0-1.9,0.4-2.7,1C12.4,21.2,12,22,11.6,22.8z"/>
<path fill="#EA5623" d="M21.2,33.3c-0.1,0-0.3,0-0.4,0c0,0-0.1,0-0.1,0.1c0,0.1,0,0.2,0,0.3c0.2,1.2,0.5,2.5,0.9,3.6
	c0,0.1,0,0.3,0.2,0.3c0.2,0,0.2-0.2,0.2-0.3c0.3-1.1,0.8-2.1,1.5-3.1c0.2-0.2,0.1-0.3-0.1-0.4c-0.5-0.1-1-0.2-1.5-0.3
	c-0.1,0-0.3,0-0.4-0.1C21.4,33.4,21.3,33.4,21.2,33.3z"/>
<path fill="#EA5623" d="M21.9,33.5c0.5,0.1,1,0.2,1.5,0.3c0.2,0.1,0.3,0.2,0.1,0.4c-0.7,0.9-1.2,1.9-1.5,3.1c0,0.1-0.1,0.3-0.2,0.3
	c-0.2,0-0.2-0.2-0.2-0.3c-0.4-1.2-0.7-2.4-0.9-3.6c0-0.1,0-0.2,0-0.3c0,0.1-0.1,0.1,0,0.3c0.1,1.2,0.4,2.4,0.8,3.6
	c0.1,0.2,0.1,0.6,0.3,0.6c0.3,0,0.3-0.3,0.4-0.6c0.3-0.8,0.6-1.6,1.1-2.4c0.2-0.3,0.4-0.6,0.7-1c-0.8-0.2-1.6-0.4-2.4-0.5
	c0,0,0,0,0,0C21.6,33.5,21.8,33.5,21.9,33.5z"/>
<path fill="#EA5623" d="M20.8,33.3c0.1,0,0.3,0,0.4,0c-0.1,0-0.1,0-0.2,0C20.9,33.3,20.8,33.3,20.8,33.3z"/>
<path fill="#EA5623" d="M25,39c-0.1,0.4,0,0.6,0.3,0.7c0.7,0.3,1,0.9,1,1.6c0,0.3,0.1,0.5,0.2,0.8c0.1,0.1,0.1,0.2,0.3,0.2
	c0.2,0,0.1-0.2,0.1-0.3c0.1-1.1-0.1-2.1-0.5-3.1c-0.2-0.5-0.4-1-0.8-1.4C25.3,38,25.1,38.5,25,39z"/>
<path fill="#E95523" d="M40,14.8c-0.4-0.3-0.7-0.5-1-0.6c-2-1-3.2-2.5-3.6-4.7C35.3,9,35,8.5,34.5,8.1c0.2,0.5,0.4,1,0.4,1.5
	c0.4,2.4,1.8,4,4,5C39.2,14.7,39.5,14.9,40,14.8z"/>
<path fill="#E95523" d="M35.7,22.1c0.9,0.7,1.9,1.2,3.1,1.4c-0.3-0.3-0.7-0.4-1.1-0.6c-1.9-0.8-3.2-2.2-3.7-4.2
	c-0.2-0.7-0.6-1.2-1.1-1.7c0.1,0.6,0.5,1.1,0.6,1.6C33.8,20,34.5,21.2,35.7,22.1z"/>
<path fill="#E95523" d="M11.9,15.7c-0.4,1.5-1.4,2.7-2.6,3.5C9,19.5,8.6,19.7,8.4,20c0,0,0.1,0,0.1,0c1.8-0.9,3.2-2.2,3.8-4.1
	c0.3-0.8,0.2-1.6,0.3-2.4c0.1-0.4,0.2-0.7,0.2-1.2c-0.5,0.6-0.8,1.5-0.7,2.2C12.1,14.9,12,15.3,11.9,15.7z"/>
<path fill="#E95523" d="M5.8,26.6c2.2-0.5,3.9-1.6,4.8-3.7c0.2-0.5,0.5-1,0.8-1.5c0-0.1,0.2-0.1,0-0.2c-0.5,0.4-0.9,0.8-1.2,1.4
	c-0.8,2-2.3,3.1-4.3,3.7c-0.4,0.1-0.8,0.2-1.2,0.4C5.2,26.7,5.5,26.6,5.8,26.6z"/>
<path fill="#E95523" d="M25.1,39.8c-0.2-0.1-0.3-0.1-0.3,0.1c0,0.3,0,0.6,0,0.9c0.1,0.8,0.6,1.2,1.3,1.1c-0.3-0.4-0.4-0.8-0.4-1.2
	C25.6,40.4,25.5,40.1,25.1,39.8z"/>
<g>
	<path fill="#762A2B" d="M20.6,33.2c0,0-0.1,0-0.1,0c0,0.2-0.1,0.3,0.1,0.5c0-0.1,0-0.2,0-0.3c0,0,0.1-0.1,0.1-0.1
		c0.1,0,0.2,0,0.3,0c0.1,0,0.1,0,0.2,0c0.1,0,0.2,0.1,0.3,0c0,0,0,0,0,0c0.4-0.2,0.9,0,1.3-0.1c-0.1-0.1-0.3-0.1-0.4-0.1
		c-0.2,0-0.5,0-0.7,0C21.4,33.2,21,33.2,20.6,33.2z"/>
	<path fill="#762A2B" d="M27.2,14.8c0.2,0,0.4,0.2,0.6,0.1c0.1-0.1,0.3,0,0.5-0.1C28,14.7,27.6,14.8,27.2,14.8z"/>
	<path fill="#762A2B" d="M28.8,5.5c0.1,0.2,0.3,0.2,0.4,0.2c0.1-0.1,0.2-0.1,0.3-0.1C29.3,5.4,29.1,5.5,28.8,5.5z"/>
	<path fill="#762A2B" d="M17.9,9.2c-0.1-0.1-0.2,0-0.3,0c-0.1,0-0.3,0-0.4,0.1c0,0,0.1,0.1,0.1,0.1c0.1,0,0.2-0.1,0.3-0.1
		C17.6,9.3,17.7,9.3,17.9,9.2z"/>
	<path fill="#762A2B" d="M5.1,35.8C5.1,35.8,5.1,35.8,5.1,35.8L5.1,35.8C5.1,35.8,5.1,35.8,5.1,35.8z"/>
</g>
<path fill="#762A2B" d="M46,44.1c0-1.6-0.2-3.1-0.3-4.6c-0.1-1.9,0-3.7-0.1-5.6c-0.1-2.9,0-5.8,0-8.6c0-1.4,0.2-2.9,0.1-4.3
	c0,0,0-0.1,0-0.1c0.1-1.5,0.2-2.9,0.2-4.4c0-0.8,0-1.6,0-2.4c0-0.1,0-0.3,0-0.4c0-1.5,0-3,0-4.5c0-0.1,0-0.2,0-0.3
	c-0.1-0.3-0.2-0.6-0.2-0.9c0,0,0,0,0,0c0-0.3,0-0.6,0.1-0.9C46,6.3,46,5.5,46,4.7c0-1.1,0-2.1,0-3.2C46,1,46,1,45.5,1
	C45.2,1,45,1.2,44.8,1.3c-0.5,0.1-1,0.1-1.6,0.1c-0.5,0-1-0.1-1.4,0c-0.5,0.1-1,0-1.6,0c-0.2,0-0.5,0-0.8,0
	c-0.7-0.1-1.4-0.2-2.1-0.2c-0.7,0-1.4,0.1-2.1,0c-0.4,0-0.8-0.1-1.2,0c-0.3,0.1-0.5,0.1-0.8,0.1c-0.4,0-0.9,0.1-1.3,0.2
	c-0.9,0.2-1.9,0.2-2.8,0.2c-1.1,0-2.1,0-3.2,0c-0.4,0-0.9,0-1.3-0.1c0.1,0.1,0.1,0.2,0.3,0.2c0,0,0,0,0,0c0.4,0.2,0.5,0.5,0.8,0.8
	c0,0,0.2,0.3,0.3,0.4c0,0,0,0.1,0.1,0.1c0.2,0.4,0.4,0.8,0.5,1.3c0.1,0.5,0.1,0.9,0.2,1.4c0.1,0,0.1,0,0.1,0
	c0.9-0.4,1.8-0.2,2.7,0.2c1.2,0.5,2.2,1.3,2.9,2.6c0.2,0.4,0.3,0.8,0.3,1.2c0.1,1.2,0.5,2.3,1,3.4c0.1,0.2,0.2,0.3,0.4,0.5
	c0.2,0.2,0.4,0.4,0.5,0.6c0.1,0.1,0.2,0.3,0.1,0.4c-0.1,0.1-0.3,0.1-0.4,0c-1.7-0.3-3.3-0.8-4.9-1.6c-1.6-0.8-3-1.9-4-3.3
	c-0.2-0.2-0.3-0.5-0.5-0.7c-0.7,0.4-1.2,0.9-1.7,1.6c-0.3,0.4-0.3,0.8-0.2,1.2c0.1,0.4,0.3,0.8,0.6,1.2c0.6,0.7,0.9,1.6,0.9,2.5
	c0,0,0.1,0,0.1,0c0.8-0.7,1.8-0.6,2.7-0.3c1.3,0.4,2.3,1.1,3.1,2.1c0.4,0.5,0.6,1.1,0.6,1.7c0.1,1,0.6,2,1.1,2.9
	c0.2,0.3,0.3,0.6,0.6,0.8c0.2,0.2,0.4,0.4,0.6,0.6c0.1,0.1,0.2,0.2,0.1,0.3c-0.1,0.1-0.2,0.1-0.3,0.1c-1-0.2-2-0.3-2.9-0.6
	c-1.9-0.6-3.7-1.4-5.3-2.7c-0.5-0.5-1-1-1.5-1.6c-0.6,1.1-1.3,2.2-1.5,3.4c-0.1,0.7,0.3,1.2,0.6,1.7c0.3,0.3,0.6,0.7,0.8,1
	c0.2,0.2,0.4,0.4,0.6,0.5c1.4,0.5,2.4,1.6,3.2,2.9c0.8,1.3,1.2,2.8,1.3,4.4c0.2,2.2-0.2,4.2-0.7,6.3c-0.2,0.8-0.4,1.6-0.6,2.4
	c0,0.2,0,0.4-0.3,0.5c-0.1-0.1-0.1-0.2-0.1-0.3c0.3-1.5-0.2-2.8-0.9-4.1c-0.3-0.5-0.3-0.5,0.1-1c0-0.1,0.1-0.1,0.2-0.2
	c0.6,0.5,0.8,1.3,1.3,1.8c0.2-2.2-2.5-4.7-5-4.8c-0.4,0.1-0.9-0.1-1.3,0.1c0.8,0.1,1.6,0.3,2.4,0.5c-0.3,0.4-0.5,0.7-0.7,1
	c-0.5,0.7-0.8,1.5-1.1,2.4c-0.1,0.2-0.2,0.6-0.4,0.6c-0.3,0-0.3-0.4-0.3-0.6c-0.4-1.2-0.7-2.4-0.8-3.6c-0.1-0.1-0.1-0.3-0.1-0.5
	c0-1.6-0.1-3.2,0.4-4.7c0.2-0.7,0.5-1.3,1-1.8c0.2-0.3,0.2-0.5,0-0.8c-0.5-0.6-1-1.2-1.3-2c0,0,0,0,0,0c-0.4,0.5-0.9,0.9-1.4,1.3
	c-1.7,1.2-3.6,1.9-5.6,2.2c-1.2,0.2-2.3,0.2-3.5,0.2c-0.1,0-0.3,0-0.4-0.1c-0.1-0.2,0.1-0.3,0.2-0.4c0.1-0.1,0.3-0.3,0.5-0.4
	c1.2-0.8,1.9-2,2.3-3.4c0.4-1.2,1.1-1.9,2.1-2.5c1.1-0.7,2.3-0.9,3.6-0.8c0.8,0.1,1.3,0.6,1.7,1.3c0.1,0.2,0.2,0.3,0.3,0.6
	c0.2-1.4,0.9-2.6,1.6-3.8c0.3-0.5,0.6-1.1,0.8-1.7c0.2-0.7,0.1-1.4-0.3-2c-0.3-0.4-0.5-0.8-0.7-1.2c0,0,0,0,0,0
	c-0.3,0.5-0.6,0.9-1,1.3c-1,1.3-2.3,2.2-3.7,3c-1,0.6-2.1,1-3.2,1.4c-0.1,0-0.2,0.1-0.3,0.1c-0.2,0-0.3-0.1-0.2-0.3
	c0.1-0.3,0.2-0.5,0.4-0.7c0.7-0.8,0.8-1.8,0.9-2.8c0.1-0.6,0.1-1.2,0-1.8c-0.1-0.7,0.3-1.3,0.6-1.9c0.8-1.2,1.8-2,3.1-2.5
	c1-0.4,1.8-0.1,2.5,0.6c0.2,0.2,0.3,0.3,0.5,0.6c0,0,0,0,0,0c0.5-1.2,1.4-2,2.4-2.8C25,6.7,25.2,5,24.4,3.8
	c-0.1-0.1-0.1-0.2-0.2-0.2C23.6,3.1,23,2.6,22.4,2c0,0,0,0,0,0c0-0.1-0.1-0.2-0.2-0.2c0,0,0,0,0,0c-0.1-0.1-0.2-0.3-0.3-0.4
	c0,0,0-0.1,0-0.1c-0.1-0.1-0.1-0.1-0.2-0.2C21.2,0.9,5.4,0.6,4.5,0.7c-1,0.1-2.1,0-3.1,0.4C0.9,1.2,0.6,1.5,0.7,2
	c0,0.2,0.1,0.4,0.1,0.7c0,1.2,0,3.4,0,4.5c-0.3,1.1-0.4,2.3-0.3,3.4c-0.1,0.2,0,0.5-0.1,0.7c-0.2,1.4-0.3,2.7-0.3,4.1
	c0,0.9-0.1,1.7,0,2.6c0.2,1.4,0.2,2.8,0.2,4.3c0,2.9,0.1,5.8-0.1,8.8c0,0,0,0.1,0,0.1c-0.1,0.4-0.2,0.8-0.2,1.3c0,1,0,2.1,0,3.1
	c0,0.1,0,0.1,0,0.2c0,0.2,0,0.4,0,0.6c-0.1,0.7,0.1,1.3,0.1,2c0.1,0.9,0.2,1.8,0.2,2.8c0,1.5,0,2.9,0,4.4c0,0.5,0.1,0.5,0.6,0.4
	c0.6-0.3,1.3-0.5,1.9-0.5c0.3,0,0.6-0.1,1,0c0,0,0.1,0,0.1,0c0.1,0,0.2,0,0.3,0.1c0.2,0.1,0.5,0.1,0.7,0c0.2-0.1,0.4,0,0.6-0.1
	c0.5-0.1,1,0,1.4-0.1c0.8-0.3,1.5-0.5,2.3-0.5c0.1,0,0.3,0,0.4,0c0.6-0.1,1.3-0.2,1.9-0.2c1.4,0,2.8,0,4.2,0c0.3,0,0.5-0.1,0.8,0
	c0.6,0.2,1.2,0.1,1.9,0.2c0.8,0.2,1.7,0.2,2.6,0.2c0.3,0,0.6,0.2,1,0.2c0.7,0,1.3,0.2,2,0.1c0.6,0,1.1,0,1.7,0c1.1,0,2.3,0,3.4-0.2
	c0.4-0.1,0.8-0.1,1.2,0c0.2,0,0.3,0,0.5,0c0.8-0.1,1.6-0.2,2.4-0.3c1.6,0,3.2,0,4.8,0c0.9,0,1.8,0.1,2.8-0.1
	c0.4-0.1,0.8-0.2,1.1-0.2c0.6,0,1.2,0.1,1.8,0.1c0.6,0,1.2,0,1.8,0.3c0.2,0.1,0.3-0.1,0.4-0.3C46,44.4,46,44.2,46,44.1z M0.8,41.5
	c0,0.1,0,0.1-0.1,0.2C0.7,41.6,0.8,41.6,0.8,41.5L0.8,41.5z M1,45.8c0.1-0.1,0.3-0.1,0.4-0.2c0,0,0,0,0,0C1.3,45.6,1.2,45.7,1,45.8z
	 M2.7,45.2c0.3,0,0.6,0,0.9,0c0,0,0,0,0.1,0C3.4,45.3,3,45.3,2.7,45.2z M17.2,9.3c0.1-0.1,0.2-0.1,0.4-0.1c0.1-0.1,0.2-0.1,0.3,0
	c-0.1,0.1-0.2,0.1-0.3,0.1C17.4,9.4,17.4,9.4,17.2,9.3c-0.8,0.5-1.6,1-2.3,1.8c-0.6,0.7-0.8,1.4-1,2.2c-0.1,0.8-0.1,1.7-0.1,2.5
	c-0.1,1-0.4,1.8-0.9,2.6c-0.1,0.2-0.3,0.5-0.3,0.7c0,0.1-0.1,0.2-0.2,0.3c-1.1,0.4-2.2,0.7-3.3,0.9c0,0-0.1,0-0.1,0
	c0-0.2,0.1-0.2,0.3-0.2c1.7-0.6,2.8-1.9,3.5-3.6c0.4-0.9,0.6-1.9,0.7-2.9C13.7,11.4,15,9.9,17.2,9.3z M9.3,19.3
	c1.3-0.9,2.2-2,2.6-3.5c0.1-0.4,0.2-0.8,0.2-1.2c-0.1-0.7,0.3-1.6,0.7-2.2c0,0.5-0.2,0.8-0.2,1.2c-0.1,0.8-0.1,1.6-0.3,2.4
	c-0.6,2-2,3.3-3.8,4.1c0,0-0.1,0-0.1,0C8.6,19.7,9,19.5,9.3,19.3z M4.9,26.6C4.9,26.6,4.9,26.6,4.9,26.6c0.4-0.3,0.7-0.3,1.1-0.4
	c2-0.6,3.5-1.7,4.3-3.7c0.2-0.6,0.7-1,1.2-1.4c0.2,0.1,0.1,0.2,0,0.2c-0.3,0.5-0.6,1-0.8,1.5c-1,2.1-2.6,3.2-4.8,3.7
	C5.5,26.6,5.2,26.7,4.9,26.6z M9.3,26.9c-0.1,0.1-0.2,0.2-0.2,0.3c-0.1,0.4-0.4,0.4-0.8,0.4c-1,0-1.9-0.1-2.9-0.3
	c-0.1,0-0.1,0-0.2-0.1c0.3-0.2,0.6,0,0.9-0.1c2.5-0.5,4.3-1.9,5.5-4.2c0.4-0.8,0.8-1.6,1.6-2.2c0.8-0.6,1.7-0.9,2.7-1
	c0.4,0,0.8,0,1.3,0c-0.2,0.2-0.4,0.2-0.6,0.2c-1.5,0.1-2.8,0.6-3.8,1.8c-0.6,0.7-0.9,1.5-1.2,2.3c-0.3,0.7-0.5,1.3-1,1.9
	C10.2,26.2,9.7,26.4,9.3,26.9z M24.1,40.3c0,0.7,0,1.3,0,2c-0.5,0-0.7-0.2-0.9-0.6c-0.5-1-0.9-1.9-1.3-2.9c-0.1-0.3-0.2-0.6,0.2-0.7
	c0.4-0.1,0.5-0.5,0.6-0.9c0.3-0.9,0.8-1.6,1.3-2.4c0.4-0.6,0.5-0.6,1-0.1c0.4,0.3,0.8,0.6,1.2,1c-0.7,0.6-1.3,1.2-1.7,2.1
	C24.4,38.6,24.1,39.4,24.1,40.3z M24.8,40.9c0-0.3,0-0.6,0-0.9c0-0.3,0.2-0.3,0.3-0.1c0.4,0.2,0.5,0.6,0.6,1c0,0.4,0.1,0.8,0.4,1.2
	C25.4,42.1,24.9,41.6,24.8,40.9z M26.9,42c0,0.1,0,0.3-0.1,0.3c-0.1,0-0.2-0.1-0.3-0.2c-0.1-0.2-0.2-0.5-0.2-0.8
	c0-0.7-0.3-1.3-1-1.6c-0.3-0.1-0.4-0.4-0.3-0.7c0.2-0.5,0.3-1,0.6-1.5c0.4,0.4,0.6,0.9,0.8,1.4C26.8,39.9,26.9,41,26.9,42z M38,23.9
	c-1,0-2-0.1-3.1-0.2c-0.2,0-0.3,0-0.3-0.2c-0.1-0.4-0.4-0.7-0.7-1c-0.7-0.6-1.1-1.5-1.3-2.3c-0.2-0.7-0.3-1.3-0.5-2
	c-0.5-1.4-1.5-2.4-2.8-2.9c-0.4-0.2-0.9-0.3-1.3-0.4c-0.2,0-0.4-0.1-0.6-0.1c0.4,0,0.7-0.1,1.1,0c1.8,0.1,3.5,1.4,4.1,3.2
	c0.4,1.1,0.8,2.2,1.5,3.1c1,1.2,2.2,2,3.6,2.4c0.2,0.1,0.5-0.1,0.7,0.2C38.2,24,38.1,23.9,38,23.9z M35.7,22.1
	c-1.2-0.9-1.9-2.1-2.3-3.6c-0.1-0.6-0.5-1.1-0.6-1.6c0.5,0.5,0.9,1,1.1,1.7c0.5,2.1,1.8,3.4,3.7,4.2c0.4,0.2,0.8,0.3,1.1,0.6
	C37.6,23.3,36.6,22.8,35.7,22.1z M38.4,15.2c-0.7-0.1-1.3-0.2-2-0.3c-0.3,0-0.6-0.1-0.7-0.5c-0.1-0.3-0.3-0.6-0.6-0.8
	c-0.7-0.7-1-1.6-1.2-2.5c-0.1-0.6-0.2-1.1-0.3-1.7c-0.4-1.7-1.4-2.8-3-3.4c-0.4-0.2-0.9-0.4-1.4-0.4c-0.2,0-0.3,0-0.4-0.2
	c0.2,0,0.5-0.1,0.7,0.1c2.2,0.1,3.9,1.5,4.5,3.7c0.3,1.2,0.7,2.4,1.5,3.4c0.8,1,1.8,1.7,3,2.2c0.3,0.1,0.7,0.1,1,0.3
	C39.1,15.3,38.7,15.3,38.4,15.2z M38.9,14.6c-2.2-1-3.6-2.6-4-5c-0.1-0.5-0.3-1-0.4-1.5C35,8.5,35.3,9,35.4,9.5
	c0.4,2.2,1.6,3.7,3.6,4.7c0.3,0.2,0.7,0.3,1,0.6C39.5,14.9,39.2,14.7,38.9,14.6z"/>
</svg>
